<svg width="29" height="34" viewBox="0 0 29 34" fill="none" xmlns="http://www.w3.org/2000/svg">
<path d="M15.1779 29.8423C13.7575 29.8423 12.624 29.2488 11.7776 28.0618C10.9311 26.8749 10.5079 25.5225 10.5079 24.0048C10.5079 22.487 10.9311 21.1347 11.7776 19.9477C12.624 18.7608 13.7575 18.1673 15.1779 18.1673C16.5984 18.1673 17.7318 18.7608 18.5783 19.9477C19.4247 21.1347 19.8479 22.487 19.8479 24.0048C19.8479 25.5225 19.4247 26.8749 18.5783 28.0618C17.7318 29.2488 16.5984 29.8423 15.1779 29.8423ZM5.19579 29.025L2.97754 28.3245C3.58075 26.4955 4.0137 24.6323 4.27638 22.7351C4.53907 20.8379 4.67041 18.9262 4.67041 16.9998C4.67041 15.0734 4.53907 13.1616 4.27638 11.2644C4.0137 9.36725 3.58075 7.50412 2.97754 5.67503L5.19579 4.97453C5.83791 6.92037 6.30005 8.89539 6.5822 10.8996C6.86434 12.9038 7.00541 14.9372 7.00541 16.9998C7.00541 19.0624 6.86434 21.0958 6.5822 23.1C6.30005 25.1042 5.83791 27.0792 5.19579 29.025ZM22.825 29.025C22.1829 27.0792 21.7208 25.1042 21.4386 23.1C21.1565 21.0958 21.0154 19.0624 21.0154 16.9998C21.0154 14.9372 21.1565 12.9038 21.4386 10.8996C21.7208 8.89539 22.1829 6.92037 22.825 4.97453L25.0433 5.67503C24.4401 7.50412 24.0071 9.36725 23.7444 11.2644C23.4818 13.1616 23.3504 15.0734 23.3504 16.9998C23.3504 18.9262 23.4818 20.8379 23.7444 22.7351C24.0071 24.6323 24.4401 26.4955 25.0433 28.3245L22.825 29.025ZM15.1779 27.5073C15.9562 27.5073 16.54 27.1424 16.9292 26.4128C17.3183 25.6831 17.5129 24.8804 17.5129 24.0048C17.5129 23.1292 17.3183 22.3265 16.9292 21.5968C16.54 20.8671 15.9562 20.5023 15.1779 20.5023C14.3996 20.5023 13.8158 20.8671 13.4267 21.5968C13.0375 22.3265 12.8429 23.1292 12.8429 24.0048C12.8429 24.8804 13.0375 25.6831 13.4267 26.4128C13.8158 27.1424 14.3996 27.5073 15.1779 27.5073ZM14.2731 26.1063C14.4482 26.262 14.6525 26.3398 14.886 26.3398C15.1195 26.3398 15.3239 26.2522 15.499 26.0771C15.7714 25.8047 15.9806 25.4885 16.1265 25.1285C16.2724 24.7685 16.3454 24.394 16.3454 24.0048C16.3454 23.6156 16.2773 23.241 16.1411 22.8811C16.0049 22.5211 15.8006 22.2049 15.5282 21.9325C15.3725 21.7573 15.173 21.6698 14.9298 21.6698C14.6866 21.6698 14.4774 21.7476 14.3023 21.9033C14.1272 22.059 14.0347 22.2633 14.025 22.5162C14.0153 22.7692 14.0882 22.9832 14.2439 23.1583C14.2439 23.1583 14.3023 23.241 14.419 23.4064C14.5358 23.5718 14.5942 23.7713 14.5942 24.0048C14.5942 24.2383 14.5358 24.4377 14.419 24.6031C14.3023 24.7685 14.2439 24.8512 14.2439 24.8512C14.0688 25.0263 13.9861 25.2404 13.9958 25.4933C14.0055 25.7463 14.098 25.9506 14.2731 26.1063ZM12.8429 15.8323C11.4225 15.8323 10.289 15.2388 9.44257 14.0518C8.59613 12.8649 8.17291 11.5125 8.17291 9.99478C8.17291 8.47703 8.59613 7.12468 9.44257 5.93772C10.289 4.75076 11.4225 4.15728 12.8429 4.15728C14.2634 4.15728 15.3968 4.75076 16.2433 5.93772C17.0897 7.12468 17.5129 8.47703 17.5129 9.99478C17.5129 11.5125 17.0897 12.8649 16.2433 14.0518C15.3968 15.2388 14.2634 15.8323 12.8429 15.8323ZM12.8429 13.4973C13.6212 13.4973 14.205 13.1324 14.5942 12.4028C14.9833 11.6731 15.1779 10.8704 15.1779 9.99478C15.1779 9.11916 14.9833 8.3165 14.5942 7.58681C14.205 6.85713 13.6212 6.49228 12.8429 6.49228C12.0646 6.49228 11.4808 6.85713 11.0917 7.58681C10.7025 8.3165 10.5079 9.11916 10.5079 9.99478C10.5079 10.8704 10.7025 11.6731 11.0917 12.4028C11.4808 13.1324 12.0646 13.4973 12.8429 13.4973ZM13.7185 12.0963C13.8937 11.9406 13.9861 11.7363 13.9958 11.4833C14.0055 11.2304 13.9326 11.0163 13.7769 10.8412C13.6796 10.7245 13.5969 10.5931 13.5288 10.4472C13.4607 10.3013 13.4267 10.1504 13.4267 9.99478C13.4267 9.83912 13.4607 9.68831 13.5288 9.54238C13.5969 9.39644 13.6796 9.2651 13.7769 9.14835C13.9326 8.97322 14.0104 8.76404 14.0104 8.52081C14.0104 8.27759 13.9229 8.06841 13.7477 7.89328C13.5726 7.73762 13.3683 7.65978 13.1348 7.65978C12.9013 7.65978 12.697 7.74734 12.5219 7.92247C12.2494 8.19489 12.0403 8.51109 11.8943 8.87107C11.7484 9.23104 11.6754 9.60562 11.6754 9.99478C11.6754 10.384 11.7435 10.7585 11.8797 11.1185C12.0159 11.4785 12.2202 11.7947 12.4927 12.0671C12.6678 12.2422 12.8721 12.3298 13.1056 12.3298C13.3391 12.3298 13.5434 12.252 13.7185 12.0963Z" fill="#059669"/>
</svg>
