<svg width="23" height="23" viewBox="0 0 23 23" fill="none" xmlns="http://www.w3.org/2000/svg">
<path d="M21.0833 1.76923H18.2083V0.884615C18.2083 0.650001 18.1074 0.424995 17.9276 0.259098C17.7479 0.0932002 17.5042 0 17.25 0C16.9958 0 16.7521 0.0932002 16.5724 0.259098C16.3926 0.424995 16.2917 0.650001 16.2917 0.884615V1.76923H6.70833V0.884615C6.70833 0.650001 6.60737 0.424995 6.42764 0.259098C6.24792 0.0932002 6.00417 0 5.75 0C5.49583 0 5.25208 0.0932002 5.07236 0.259098C4.89263 0.424995 4.79167 0.650001 4.79167 0.884615V1.76923H1.91667C1.40833 1.76923 0.920823 1.95563 0.561379 2.28743C0.201934 2.61922 0 3.06923 0 3.53846V21.2308C0 21.7 0.201934 22.15 0.561379 22.4818C0.920823 22.8136 1.40833 23 1.91667 23H21.0833C21.5917 23 22.0792 22.8136 22.4386 22.4818C22.7981 22.15 23 21.7 23 21.2308V3.53846C23 3.06923 22.7981 2.61922 22.4386 2.28743C22.0792 1.95563 21.5917 1.76923 21.0833 1.76923ZM4.79167 3.53846V4.42308C4.79167 4.65769 4.89263 4.8827 5.07236 5.04859C5.25208 5.21449 5.49583 5.30769 5.75 5.30769C6.00417 5.30769 6.24792 5.21449 6.42764 5.04859C6.60737 4.8827 6.70833 4.65769 6.70833 4.42308V3.53846H16.2917V4.42308C16.2917 4.65769 16.3926 4.8827 16.5724 5.04859C16.7521 5.21449 16.9958 5.30769 17.25 5.30769C17.5042 5.30769 17.7479 5.21449 17.9276 5.04859C18.1074 4.8827 18.2083 4.65769 18.2083 4.42308V3.53846H21.0833V7.07692H1.91667V3.53846H4.79167ZM21.0833 21.2308H1.91667V8.84615H21.0833V21.2308ZM12.9375 12.8269C12.9375 13.0894 12.8532 13.3459 12.6952 13.5641C12.5373 13.7823 12.3128 13.9524 12.0501 14.0528C11.7874 14.1533 11.4984 14.1795 11.2196 14.1283C10.9407 14.0771 10.6846 13.9508 10.4835 13.7652C10.2825 13.5796 10.1456 13.3432 10.0901 13.0858C10.0347 12.8284 10.0631 12.5616 10.1719 12.3191C10.2807 12.0767 10.465 11.8694 10.7014 11.7236C10.9378 11.5778 11.2157 11.5 11.5 11.5C11.8812 11.5 12.2469 11.6398 12.5165 11.8886C12.786 12.1375 12.9375 12.475 12.9375 12.8269ZM18.2083 12.8269C18.2083 13.0894 18.124 13.3459 17.9661 13.5641C17.8081 13.7823 17.5836 13.9524 17.3209 14.0528C17.0583 14.1533 16.7692 14.1795 16.4904 14.1283C16.2115 14.0771 15.9554 13.9508 15.7544 13.7652C15.5533 13.5796 15.4164 13.3432 15.361 13.0858C15.3055 12.8284 15.334 12.5616 15.4428 12.3191C15.5516 12.0767 15.7358 11.8694 15.9722 11.7236C16.2086 11.5778 16.4865 11.5 16.7708 11.5C17.1521 11.5 17.5177 11.6398 17.7873 11.8886C18.0569 12.1375 18.2083 12.475 18.2083 12.8269ZM7.66667 17.25C7.66667 17.5124 7.58236 17.769 7.4244 17.9872C7.26645 18.2054 7.04194 18.3755 6.77927 18.4759C6.51661 18.5763 6.22757 18.6026 5.94872 18.5514C5.66988 18.5002 5.41374 18.3738 5.2127 18.1883C5.01166 18.0027 4.87475 17.7663 4.81929 17.5089C4.76382 17.2515 4.79229 16.9847 4.90109 16.7422C5.00989 16.4997 5.19414 16.2925 5.43053 16.1467C5.66693 16.0009 5.94486 15.9231 6.22917 15.9231C6.61042 15.9231 6.97605 16.0629 7.24563 16.3117C7.51522 16.5606 7.66667 16.8981 7.66667 17.25ZM12.9375 17.25C12.9375 17.5124 12.8532 17.769 12.6952 17.9872C12.5373 18.2054 12.3128 18.3755 12.0501 18.4759C11.7874 18.5763 11.4984 18.6026 11.2196 18.5514C10.9407 18.5002 10.6846 18.3738 10.4835 18.1883C10.2825 18.0027 10.1456 17.7663 10.0901 17.5089C10.0347 17.2515 10.0631 16.9847 10.1719 16.7422C10.2807 16.4997 10.465 16.2925 10.7014 16.1467C10.9378 16.0009 11.2157 15.9231 11.5 15.9231C11.8812 15.9231 12.2469 16.0629 12.5165 16.3117C12.786 16.5606 12.9375 16.8981 12.9375 17.25ZM18.2083 17.25C18.2083 17.5124 18.124 17.769 17.9661 17.9872C17.8081 18.2054 17.5836 18.3755 17.3209 18.4759C17.0583 18.5763 16.7692 18.6026 16.4904 18.5514C16.2115 18.5002 15.9554 18.3738 15.7544 18.1883C15.5533 18.0027 15.4164 17.7663 15.361 17.5089C15.3055 17.2515 15.334 16.9847 15.4428 16.7422C15.5516 16.4997 15.7358 16.2925 15.9722 16.1467C16.2086 16.0009 16.4865 15.9231 16.7708 15.9231C17.1521 15.9231 17.5177 16.0629 17.7873 16.3117C18.0569 16.5606 18.2083 16.8981 18.2083 17.25Z" fill="#9CA3AF"/>
</svg>
