<svg width="25" height="28" viewBox="0 0 25 28" fill="none" xmlns="http://www.w3.org/2000/svg">
<path d="M12.0102 23.9165C11.2648 23.9165 10.3291 23.8031 9.20291 23.5762C8.07675 23.3494 7.26251 23.1144 6.7602 22.8714C6.58196 22.7903 6.44018 22.6688 6.33485 22.5068C6.22953 22.3447 6.17687 22.1665 6.17687 21.9721V20.9998H5.20464C4.92918 20.9998 4.69828 20.9067 4.51194 20.7203C4.32559 20.534 4.23242 20.3031 4.23242 20.0276V18.5693C4.23242 18.2938 4.32559 18.0629 4.51194 17.8766C4.69828 17.6902 4.92918 17.5971 5.20464 17.5971H6.17687V15.6526H5.20464C4.92918 15.6526 4.69828 15.5594 4.51194 15.3731C4.32559 15.1868 4.23242 14.9559 4.23242 14.6804V13.2221C4.23242 12.9466 4.32559 12.7157 4.51194 12.5294C4.69828 12.343 4.92918 12.2498 5.20464 12.2498H6.17687V10.3054H5.20464C4.92918 10.3054 4.69828 10.2122 4.51194 10.0259C4.32559 9.83954 4.23242 9.60863 4.23242 9.33317V7.87484C4.23242 7.59937 4.32559 7.36847 4.51194 7.18213C4.69828 6.99579 4.92918 6.90261 5.20464 6.90261H6.17687V5.44428C6.17687 5.0878 6.3227 4.82044 6.61437 4.6422C6.90603 4.46396 7.2139 4.43965 7.53798 4.56928C7.55418 4.56928 7.99978 4.71511 8.87478 5.00678C9.74978 5.29845 10.7949 5.44428 12.0102 5.44428C13.2255 5.44428 14.2706 5.29845 15.1456 5.00678C16.0206 4.71511 16.4662 4.56928 16.4824 4.56928C16.8065 4.43965 17.1144 4.46801 17.406 4.65435C17.6977 4.84069 17.8435 5.104 17.8435 5.44428V6.90261H18.8158C19.0912 6.90261 19.3221 6.99579 19.5085 7.18213C19.6948 7.36847 19.788 7.59937 19.788 7.87484V9.33317C19.788 9.60863 19.6948 9.83954 19.5085 10.0259C19.3221 10.2122 19.0912 10.3054 18.8158 10.3054H17.8435V12.2498H18.8158C19.0912 12.2498 19.3221 12.343 19.5085 12.5294C19.6948 12.7157 19.788 12.9466 19.788 13.2221V14.6804C19.788 14.9559 19.6948 15.1868 19.5085 15.3731C19.3221 15.5594 19.0912 15.6526 18.8158 15.6526H17.8435V17.5971H18.8158C19.0912 17.5971 19.3221 17.6902 19.5085 17.8766C19.6948 18.0629 19.788 18.2938 19.788 18.5693V20.0276C19.788 20.3031 19.6948 20.534 19.5085 20.7203C19.3221 20.9067 19.0912 20.9998 18.8158 20.9998H17.8435V21.9721C17.8435 22.1665 17.7909 22.3447 17.6855 22.5068C17.5802 22.6688 17.4384 22.7903 17.2602 22.8714C16.7579 23.1144 15.9436 23.3494 14.8175 23.5762C13.6913 23.8031 12.7556 23.9165 12.0102 23.9165ZM12.0102 10.9373C12.6259 10.9373 13.2781 10.8806 13.9668 10.7672C14.6555 10.6538 15.2996 10.4917 15.8991 10.2811V6.80539C15.2833 6.98363 14.6393 7.12542 13.9668 7.23074C13.2943 7.33606 12.6421 7.38873 12.0102 7.38873C11.3945 7.38873 10.7504 7.33606 10.0779 7.23074C9.40545 7.12542 8.75326 6.98363 8.12131 6.80539V10.2811C8.70464 10.4917 9.34469 10.6538 10.0414 10.7672C10.7382 10.8806 11.3945 10.9373 12.0102 10.9373ZM12.0102 16.479C12.6097 16.479 13.2538 16.4223 13.9425 16.3089C14.6311 16.1954 15.2833 16.0253 15.8991 15.7984V12.2984C15.1861 12.4929 14.5096 12.6387 13.8696 12.7359C13.2295 12.8332 12.6097 12.8818 12.0102 12.8818C11.3783 12.8818 10.7301 12.8332 10.0658 12.7359C9.4014 12.6387 8.75326 12.4929 8.12131 12.2984V15.7984C8.73705 16.0253 9.38925 16.1954 10.0779 16.3089C10.7666 16.4223 11.4107 16.479 12.0102 16.479ZM12.0102 21.9721C12.6259 21.9721 13.2781 21.9153 13.9668 21.8019C14.6555 21.6885 15.2996 21.5265 15.8991 21.3158V17.8401C15.2833 18.0184 14.6393 18.1601 13.9668 18.2655C13.2943 18.3708 12.6421 18.4234 12.0102 18.4234C11.3945 18.4234 10.7504 18.3708 10.0779 18.2655C9.40545 18.1601 8.75326 18.0184 8.12131 17.8401V21.3158C8.70464 21.5265 9.34469 21.6885 10.0414 21.8019C10.7382 21.9153 11.3945 21.9721 12.0102 21.9721Z" fill="#059669"/>
</svg>
