<svg width="100" height="100" viewBox="0 0 100 100" fill="none" xmlns="http://www.w3.org/2000/svg">
<path d="M26.1225 100V73.8775H0V26.1225H26.1225V0H73.8775V26.1225H100V73.8775H73.8775V100H26.1225ZM7.95903 46.0205H34.0816C34.7618 46.0205 35.3894 46.182 35.9642 46.5052C36.539 46.8283 36.9965 47.2586 37.3366 47.796L43.5102 56.9901L51.5409 32.8979C51.8266 32.0748 52.3062 31.403 52.9797 30.8826C53.6531 30.3622 54.4253 30.102 55.2962 30.102C55.9661 30.102 56.6025 30.2664 57.2054 30.5952C57.8083 30.924 58.2772 31.3515 58.6122 31.8775L67.9898 46.0205H92.041V34.0816H65.9184V7.95903H34.0816V34.0816H7.95903V46.0205ZM34.0816 92.041H65.9184V65.9184H92.041V53.9795H65.9184C65.2542 53.9795 64.6231 53.8104 64.0253 53.4722C63.4275 53.1339 62.9293 52.6942 62.5308 52.153L56.4898 43.01L48.4591 67.1021C48.1734 67.9252 47.6717 68.597 46.954 69.1174C46.2363 69.6377 45.4373 69.8979 44.5568 69.8979C43.8795 69.8979 43.2534 69.7364 42.6786 69.4133C42.1038 69.0901 41.6463 68.6599 41.3062 68.1225L31.8775 53.9795H7.95903V65.9184H34.0816V92.041Z" fill="#13EC5B"/>
</svg>
