<svg width="29" height="34" viewBox="0 0 29 34" fill="none" xmlns="http://www.w3.org/2000/svg">
<path d="M19.7896 27.0987L21.1322 25.756L19.2642 23.888L17.9216 25.2307C17.6491 25.5031 17.5129 25.8144 17.5129 26.1647C17.5129 26.5149 17.6491 26.8262 17.9216 27.0987C18.194 27.3711 18.5053 27.5073 18.8556 27.5073C19.2058 27.5073 19.5171 27.3711 19.7896 27.0987ZM22.7667 24.1215L24.1093 22.7789C24.3817 22.5065 24.5179 22.1952 24.5179 21.8449C24.5179 21.4947 24.3817 21.1833 24.1093 20.9109C23.8369 20.6385 23.5256 20.5023 23.1753 20.5023C22.8251 20.5023 22.5137 20.6385 22.2413 20.9109L20.8987 22.2535L22.7667 24.1215ZM21.4532 28.7623C20.7333 29.4823 19.8674 29.8423 18.8556 29.8423C17.8437 29.8423 16.9778 29.4823 16.2579 28.7623C15.5379 28.0424 15.1779 27.1765 15.1779 26.1647C15.1779 25.1528 15.5379 24.2869 16.2579 23.567L20.5776 19.2472C21.2976 18.5273 22.1635 18.1673 23.1753 18.1673C24.1871 18.1673 25.053 18.5273 25.773 19.2472C26.493 19.9672 26.8529 20.8331 26.8529 21.8449C26.8529 22.8567 26.493 23.7226 25.773 24.4426L21.4532 28.7623ZM5.83793 25.1723C5.83793 24.6275 5.83793 24.0875 5.83793 23.5524C5.83793 23.0173 5.83793 22.4773 5.83793 21.9325V17.5835C5.83793 17.3111 5.83793 17.0338 5.83793 16.7517C5.83793 16.4695 5.83793 16.1923 5.83793 15.9198V8.82728V25.1723ZM5.83793 27.5073C5.1958 27.5073 4.64611 27.2786 4.18884 26.8214C3.73157 26.3641 3.50293 25.8144 3.50293 25.1723V8.82728C3.50293 8.18516 3.73157 7.63546 4.18884 7.17819C4.64611 6.72092 5.1958 6.49228 5.83793 6.49228H10.7414C10.9944 5.79178 11.4176 5.22749 12.0111 4.79941C12.6046 4.37132 13.271 4.15728 14.0104 4.15728C14.7498 4.15728 15.4163 4.37132 16.0098 4.79941C16.6033 5.22749 17.0265 5.79178 17.2794 6.49228H22.1829C22.8251 6.49228 23.3748 6.72092 23.832 7.17819C24.2893 7.63546 24.5179 8.18516 24.5179 8.82728V15.9782C24.1288 15.8809 23.7396 15.8323 23.3504 15.8323C22.9613 15.8323 22.5721 15.8615 22.1829 15.9198V8.82728H5.83793V25.1723H12.9305C12.8721 25.5615 12.8429 25.9506 12.8429 26.3398C12.8429 26.729 12.8916 27.1181 12.9889 27.5073H5.83793ZM14.0104 7.95166C14.2634 7.95166 14.4726 7.86896 14.638 7.70356C14.8034 7.53817 14.8861 7.32899 14.8861 7.07603C14.8861 6.82307 14.8034 6.6139 14.638 6.4485C14.4726 6.28311 14.2634 6.20041 14.0104 6.20041C13.7575 6.20041 13.5483 6.28311 13.3829 6.4485C13.2175 6.6139 13.1348 6.82307 13.1348 7.07603C13.1348 7.32899 13.2175 7.53817 13.3829 7.70356C13.5483 7.86896 13.7575 7.95166 14.0104 7.95166ZM8.17293 13.4973V11.1623H19.8479V13.4973H8.17293ZM8.17293 18.1673V15.8323H19.8479V16.8247C19.6923 16.922 19.5415 17.0338 19.3955 17.1603C19.2496 17.2868 19.0988 17.4279 18.9431 17.5835L18.3594 18.1673H8.17293ZM8.17293 22.8373V20.5023H16.0244L14.5942 21.9325C14.4385 22.0881 14.2974 22.2389 14.171 22.3849C14.0445 22.5308 13.9326 22.6816 13.8353 22.8373H8.17293Z" fill="#0D9488"/>
</svg>
