<svg width="29" height="34" viewBox="0 0 29 34" fill="none" xmlns="http://www.w3.org/2000/svg">
<path d="M19.8479 21.6698C18.875 21.6698 18.048 21.3293 17.367 20.6482C16.686 19.9672 16.3454 19.1402 16.3454 18.1673C16.3454 17.1944 16.686 16.3674 17.367 15.6863C18.048 15.0053 18.875 14.6648 19.8479 14.6648C20.8208 14.6648 21.6478 15.0053 22.3289 15.6863C23.0099 16.3674 23.3504 17.1944 23.3504 18.1673C23.3504 19.1402 23.0099 19.9672 22.3289 20.6482C21.6478 21.3293 20.8208 21.6698 19.8479 21.6698ZM19.8479 19.3348C20.1787 19.3348 20.456 19.2229 20.6798 18.9991C20.9035 18.7754 21.0154 18.4981 21.0154 18.1673C21.0154 17.8365 20.9035 17.5592 20.6798 17.3354C20.456 17.1117 20.1787 16.9998 19.8479 16.9998C19.5171 16.9998 19.2399 17.1117 19.0161 17.3354C18.7923 17.5592 18.6804 17.8365 18.6804 18.1673C18.6804 18.4981 18.7923 18.7754 19.0161 18.9991C19.2399 19.2229 19.5171 19.3348 19.8479 19.3348ZM12.8429 29.8423V26.4565C12.8429 26.0479 12.9402 25.6636 13.1348 25.3036C13.3294 24.9436 13.6018 24.6566 13.9521 24.4426C14.5747 24.0729 15.2314 23.7664 15.9222 23.5232C16.613 23.28 17.3183 23.1 18.0383 22.9832L19.8479 25.1723L21.6576 22.9832C22.3775 23.1 23.078 23.28 23.7591 23.5232C24.4401 23.7664 25.092 24.0729 25.7146 24.4426C26.0649 24.6566 26.3421 24.9436 26.5465 25.3036C26.7508 25.6636 26.8529 26.0479 26.8529 26.4565V29.8423H12.8429ZM15.1487 27.5073H18.7388L17.1627 25.5809C16.8124 25.6782 16.4719 25.8047 16.1411 25.9603C15.8103 26.116 15.4795 26.2814 15.1487 26.4565V27.5073ZM20.9571 27.5073H24.5179V26.4565C24.2066 26.262 23.8855 26.0917 23.5547 25.9458C23.224 25.7998 22.8834 25.6782 22.5332 25.5809L20.9571 27.5073ZM5.83793 27.5073C5.1958 27.5073 4.64611 27.2786 4.18884 26.8214C3.73157 26.3641 3.50293 25.8144 3.50293 25.1723V8.82729C3.50293 8.18516 3.73157 7.63546 4.18884 7.17819C4.64611 6.72092 5.1958 6.49228 5.83793 6.49228H22.1829C22.8251 6.49228 23.3748 6.72092 23.832 7.17819C24.2893 7.63546 24.5179 8.18516 24.5179 8.82729V14.6648C24.2066 14.2756 23.8661 13.9059 23.4964 13.5557C23.1267 13.2054 22.6888 12.9719 22.1829 12.8552V8.82729H5.83793V25.1723H10.6831C10.6247 25.3863 10.5809 25.6004 10.5517 25.8144C10.5225 26.0285 10.5079 26.2425 10.5079 26.4565V27.5073H5.83793ZM8.17293 13.4973H16.3454C16.8513 13.1081 17.4059 12.8162 18.0091 12.6217C18.6123 12.4271 19.2253 12.3298 19.8479 12.3298V11.1623H8.17293V13.4973ZM8.17293 18.1673H14.0104C14.0104 17.7587 14.0542 17.3598 14.1418 16.9706C14.2293 16.5814 14.351 16.202 14.5066 15.8323H8.17293V18.1673ZM8.17293 22.8373H12.2008C12.4148 22.6622 12.6435 22.5065 12.8867 22.3703C13.1299 22.2341 13.378 22.1076 13.631 21.9908V20.5023H8.17293V22.8373ZM5.83793 25.1723V8.82729V12.826C5.83793 12.6703 5.83793 12.5487 5.83793 12.4611C5.83793 12.3736 5.83793 12.3298 5.83793 12.3298C5.83793 12.3298 5.83793 12.8989 5.83793 14.0373C5.83793 15.1756 5.83793 16.5522 5.83793 18.1673C5.83793 18.7121 5.83793 19.257 5.83793 19.8018C5.83793 20.3466 5.83793 20.8915 5.83793 21.4363C5.83793 21.592 5.83793 21.7573 5.83793 21.9325C5.83793 22.1076 5.83793 22.273 5.83793 22.4287C5.83793 22.8762 5.83793 23.3335 5.83793 23.8005C5.83793 24.2675 5.83793 24.7247 5.83793 25.1723Z" fill="#9333EA"/>
</svg>
