<svg width="24" height="23" viewBox="0 0 24 23" fill="none" xmlns="http://www.w3.org/2000/svg">
<path d="M9.33333 9.33333C8.05 9.33333 6.95139 8.87639 6.0375 7.9625C5.12361 7.04861 4.66667 5.95 4.66667 4.66667C4.66667 3.38333 5.12361 2.28472 6.0375 1.37083C6.95139 0.456944 8.05 0 9.33333 0C10.6167 0 11.7153 0.456944 12.6292 1.37083C13.5431 2.28472 14 3.38333 14 4.66667C14 5.95 13.5431 7.04861 12.6292 7.9625C11.7153 8.87639 10.6167 9.33333 9.33333 9.33333ZM9.33333 7C9.975 7 10.5243 6.77153 10.9812 6.31458C11.4382 5.85764 11.6667 5.30833 11.6667 4.66667C11.6667 4.025 11.4382 3.47569 10.9812 3.01875C10.5243 2.56181 9.975 2.33333 9.33333 2.33333C8.69167 2.33333 8.14236 2.56181 7.68542 3.01875C7.22847 3.47569 7 4.025 7 4.66667C7 5.30833 7.22847 5.85764 7.68542 6.31458C8.14236 6.77153 8.69167 7 9.33333 7ZM22.2833 22.75L18.55 19.0167C18.1417 19.25 17.7042 19.4444 17.2375 19.6C16.7708 19.7556 16.275 19.8333 15.75 19.8333C14.2917 19.8333 13.0521 19.3229 12.0312 18.3021C11.0104 17.2812 10.5 16.0417 10.5 14.5833C10.5 13.125 11.0104 11.8854 12.0312 10.8646C13.0521 9.84375 14.2917 9.33333 15.75 9.33333C17.2083 9.33333 18.4479 9.84375 19.4688 10.8646C20.4896 11.8854 21 13.125 21 14.5833C21 15.1083 20.9222 15.6042 20.7667 16.0708C20.6111 16.5375 20.4167 16.975 20.1833 17.3833L23.9167 21.1167L22.2833 22.75ZM15.75 17.5C16.5667 17.5 17.2569 17.2181 17.8208 16.6542C18.3847 16.0903 18.6667 15.4 18.6667 14.5833C18.6667 13.7667 18.3847 13.0764 17.8208 12.5125C17.2569 11.9486 16.5667 11.6667 15.75 11.6667C14.9333 11.6667 14.2431 11.9486 13.6792 12.5125C13.1153 13.0764 12.8333 13.7667 12.8333 14.5833C12.8333 15.4 13.1153 16.0903 13.6792 16.6542C14.2431 17.2181 14.9333 17.5 15.75 17.5ZM0 18.6667V15.4292C0 14.7681 0.165278 14.1556 0.495833 13.5917C0.826389 13.0278 1.28333 12.6 1.86667 12.3083C2.85833 11.8028 3.97639 11.375 5.22083 11.025C6.46528 10.675 7.84583 10.5 9.3625 10.5C9.12917 10.85 8.92986 11.2243 8.76458 11.6229C8.59931 12.0215 8.46806 12.4347 8.37083 12.8625C7.20417 12.9597 6.16389 13.159 5.25 13.4604C4.33611 13.7618 3.56806 14.0778 2.94583 14.4083C2.75139 14.5056 2.60069 14.6465 2.49375 14.8313C2.38681 15.016 2.33333 15.2153 2.33333 15.4292V16.3333H8.37083C8.46806 16.7611 8.59931 17.1694 8.76458 17.5583C8.92986 17.9472 9.12917 18.3167 9.3625 18.6667H0Z" fill="#059669"/>
</svg>
