<svg width="11" height="14" viewBox="0 0 11 14" fill="none" xmlns="http://www.w3.org/2000/svg">
<path d="M5.05079 7.36142C5.77045 7.36142 6.47395 7.14555 7.07233 6.74111C7.6707 6.33666 8.13708 5.76182 8.41249 5.08926C8.68789 4.41669 8.75995 3.67663 8.61955 2.96264C8.47915 2.24865 8.1326 1.59281 7.62372 1.07806C7.11484 0.5633 6.46649 0.212746 5.76066 0.0707254C5.05482 -0.0712955 4.32321 0.0015948 3.65832 0.280179C2.99344 0.558763 2.42516 1.03053 2.02534 1.63582C1.62551 2.24111 1.41211 2.95273 1.41211 3.68071C1.41307 4.65659 1.79674 5.59223 2.47892 6.28229C3.16109 6.97234 4.08604 7.36044 5.05079 7.36142ZM5.05079 1.2269C5.53056 1.2269 5.99956 1.37082 6.39848 1.64044C6.7974 1.91007 7.10832 2.2933 7.29192 2.74168C7.47552 3.19005 7.52356 3.68343 7.42996 4.15942C7.33636 4.63541 7.10533 5.07264 6.76608 5.41581C6.42682 5.75898 5.99459 5.99269 5.52403 6.08737C5.05348 6.18205 4.56573 6.13345 4.12248 5.94773C3.67922 5.76201 3.30037 5.4475 3.03382 5.04397C2.76727 4.64044 2.625 4.16603 2.625 3.68071C2.625 3.02992 2.88057 2.40578 3.3355 1.94561C3.79042 1.48543 4.40743 1.2269 5.05079 1.2269Z" fill="#757575"/>
<path fill-rule="evenodd" clip-rule="evenodd" d="M5.3877 8.72559C6.8346 8.72723 8.22193 9.3089 9.24512 10.3438C10.0632 11.1713 10.5942 12.2349 10.7754 13.376H9.54492C9.37827 12.5616 8.97974 11.8069 8.38965 11.21C7.59355 10.4047 6.51355 9.95216 5.3877 9.95215C4.26182 9.95215 3.18186 10.4046 2.38574 11.21C1.79563 11.8069 1.39712 12.5616 1.23047 13.376H0C0.181217 12.2349 0.712177 11.1713 1.53027 10.3438C2.55347 9.30892 3.9408 8.72721 5.3877 8.72559Z" fill="#757575"/>
</svg>
