<svg width="20" height="20" viewBox="0 0 20 20" fill="none" xmlns="http://www.w3.org/2000/svg">
<path d="M11.1806 19.4443C9.43056 19.4443 7.93982 18.8286 6.70833 17.5971C5.47685 16.3656 4.86111 14.8749 4.86111 13.1249V12.5659C3.46759 12.339 2.30903 11.6868 1.38542 10.6093C0.461806 9.53172 0 8.26378 0 6.80545V0.972113H2.91667V-0.000108719H4.86111V3.88878H2.91667V2.91656H1.94444V6.80545C1.94444 7.87489 2.32523 8.7904 3.08681 9.55197C3.84838 10.3135 4.76389 10.6943 5.83333 10.6943C6.90278 10.6943 7.81829 10.3135 8.57986 9.55197C9.34144 8.7904 9.72222 7.87489 9.72222 6.80545V2.91656H8.75V3.88878H6.80556V-0.000108719H8.75V0.972113H11.6667V6.80545C11.6667 8.26378 11.2049 9.53172 10.2812 10.6093C9.35764 11.6868 8.19907 12.339 6.80556 12.5659V13.1249C6.80556 14.3402 7.2309 15.3732 8.0816 16.2238C8.93229 17.0745 9.96528 17.4999 11.1806 17.4999C12.3958 17.4999 13.4288 17.0745 14.2795 16.2238C15.1302 15.3732 15.5556 14.3402 15.5556 13.1249V11.4964C14.9884 11.302 14.5226 10.9536 14.158 10.4513C13.7934 9.94897 13.6111 9.38184 13.6111 8.74989C13.6111 7.93971 13.8947 7.25105 14.4618 6.68392C15.0289 6.11679 15.7176 5.83322 16.5278 5.83322C17.338 5.83322 18.0266 6.11679 18.5938 6.68392C19.1609 7.25105 19.4444 7.93971 19.4444 8.74989C19.4444 9.38184 19.2622 9.94897 18.8976 10.4513C18.533 10.9536 18.0671 11.302 17.5 11.4964V13.1249C17.5 14.8749 16.8843 16.3656 15.6528 17.5971C14.4213 18.8286 12.9306 19.4443 11.1806 19.4443ZM16.5278 9.72211C16.8032 9.72211 17.0341 9.62894 17.2205 9.4426C17.4068 9.25626 17.5 9.02535 17.5 8.74989C17.5 8.47443 17.4068 8.24353 17.2205 8.05718C17.0341 7.87084 16.8032 7.77767 16.5278 7.77767C16.2523 7.77767 16.0214 7.87084 15.8351 8.05718C15.6487 8.24353 15.5556 8.47443 15.5556 8.74989C15.5556 9.02535 15.6487 9.25626 15.8351 9.4426C16.0214 9.62894 16.2523 9.72211 16.5278 9.72211Z" fill="#13EC5B"/>
</svg>
