<svg width="20" height="21" viewBox="0 0 20 21" fill="none" xmlns="http://www.w3.org/2000/svg">
<path fill-rule="evenodd" clip-rule="evenodd" d="M18.72 4.69961L10.47 0.185547C10.0219 -0.062034 9.47808 -0.062034 9.03 0.185547L0.78 4.70148C0.300138 4.96404 0.00124168 5.46699 0 6.01398V14.9802C0.00124168 15.5272 0.300138 16.0302 0.78 16.2927L9.03 20.8087C9.47808 21.0563 10.0219 21.0563 10.47 20.8087L18.72 16.2927C19.1999 16.0302 19.4988 15.5272 19.5 14.9802V6.01492C19.4998 5.46692 19.2007 4.96265 18.72 4.69961ZM9.75 1.49805L17.2819 5.62305L14.4909 7.15117L6.95813 3.02617L9.75 1.49805ZM9.75 9.74805L2.21812 5.62305L5.39625 3.88305L12.9281 8.00805L9.75 9.74805ZM1.5 6.93555L9 11.0399V19.0827L1.5 14.9812V6.93555ZM18 14.9774L10.5 19.0827V11.0437L13.5 9.40211V12.748C13.5 13.1623 13.8358 13.498 14.25 13.498C14.6642 13.498 15 13.1623 15 12.748V8.58086L18 6.93555V14.9765V14.9774Z" fill="#F94C05"/>
</svg>
