<svg width="29" height="34" viewBox="0 0 29 34" fill="none" xmlns="http://www.w3.org/2000/svg">
<path d="M5.83793 28.6748C5.1958 28.6748 4.64611 28.4462 4.18884 27.9889C3.73157 27.5316 3.50293 26.9819 3.50293 26.3398V9.9948C3.50293 9.35268 3.73157 8.80298 4.18884 8.34571C4.64611 7.88844 5.1958 7.65981 5.83793 7.65981H7.00543V5.3248H9.34043V7.65981H18.6804V5.3248H21.0154V7.65981H22.1829C22.8251 7.65981 23.3748 7.88844 23.832 8.34571C24.2893 8.80298 24.5179 9.35268 24.5179 9.9948V26.3398C24.5179 26.9819 24.2893 27.5316 23.832 27.9889C23.3748 28.4462 22.8251 28.6748 22.1829 28.6748H5.83793ZM5.83793 26.3398H22.1829V9.9948H5.83793V26.3398ZM10.5079 26.3398V24.2383L8.40643 21.7866C8.19239 21.5725 8.00267 21.2806 7.83727 20.9109C7.67188 20.5412 7.58918 20.1131 7.58918 19.6267C7.58918 19.3737 7.6135 19.1256 7.66215 18.8824C7.71079 18.6392 7.79349 18.4008 7.91024 18.1673C7.81295 17.9533 7.73512 17.7246 7.67674 17.4814C7.61837 17.2382 7.58918 16.9803 7.58918 16.7079C7.58918 16.2215 7.67188 15.7934 7.83727 15.4237C8.00267 15.054 8.19239 14.7621 8.40643 14.5481L10.5079 12.0963V9.9948H12.2592V12.4174C12.2592 12.5147 12.1911 12.6995 12.0549 12.9719L9.71987 15.7156C9.58366 15.8712 9.48637 16.0318 9.42799 16.1971C9.36962 16.3625 9.34043 16.5328 9.34043 16.7079C9.34043 17.0971 9.46691 17.4328 9.71987 17.7149C9.97283 17.997 10.2939 18.1381 10.6831 18.1381C10.8582 18.1381 11.0236 18.1089 11.1792 18.0506C11.3349 17.9922 11.4711 17.8949 11.5879 17.7587C11.9187 17.4279 12.2932 17.1749 12.7116 16.9998C13.1299 16.8247 13.5629 16.7371 14.0104 16.7371C14.458 16.7371 14.8909 16.8247 15.3093 16.9998C15.7276 17.1749 16.1022 17.4279 16.433 17.7587C16.5692 17.8949 16.7151 17.9922 16.8708 18.0506C17.0265 18.1089 17.1821 18.1381 17.3378 18.1381C17.727 18.1381 18.048 17.997 18.301 17.7149C18.5539 17.4328 18.6804 17.1068 18.6804 16.7371C18.6804 16.562 18.6464 16.3917 18.5783 16.2263C18.5102 16.0609 18.4177 15.9004 18.301 15.7447L15.966 12.9719C15.8882 12.8941 15.8346 12.8065 15.8055 12.7092C15.7763 12.6119 15.7617 12.5147 15.7617 12.4174V9.9948H17.5129V12.0963L19.6436 14.6064C19.916 14.9178 20.1155 15.2534 20.242 15.6134C20.3684 15.9734 20.4317 16.3479 20.4317 16.7371C20.4317 16.9901 20.3976 17.2382 20.3295 17.4814C20.2614 17.7246 20.1787 17.9533 20.0814 18.1673C20.1982 18.4008 20.2857 18.6392 20.3441 18.8824C20.4025 19.1256 20.4317 19.3737 20.4317 19.6267C20.4317 20.1131 20.349 20.5412 20.1836 20.9109C20.0182 21.2806 19.8285 21.5725 19.6144 21.7866L17.5129 24.2383V26.3398H15.7617V23.9172C15.7617 23.8005 15.8298 23.6156 15.966 23.3627L18.301 20.6191C18.4372 20.4634 18.5345 20.298 18.5929 20.1229C18.6512 19.9477 18.6804 19.7726 18.6804 19.5975C18.4664 19.6948 18.2523 19.7678 18.0383 19.8164C17.8243 19.865 17.6005 19.8894 17.367 19.8894C16.9778 19.8894 16.5887 19.8115 16.1995 19.6559C15.8103 19.5002 15.4698 19.2667 15.1779 18.9554C15.0417 18.7997 14.8715 18.683 14.6671 18.6051C14.4628 18.5273 14.2439 18.4884 14.0104 18.4884C13.7964 18.4884 13.5872 18.5273 13.3829 18.6051C13.1786 18.683 12.9986 18.7997 12.8429 18.9554C12.5511 19.2667 12.2154 19.5002 11.836 19.6559C11.4565 19.8115 11.0722 19.8894 10.6831 19.8894C10.4496 19.8894 10.2209 19.865 9.99715 19.8164C9.77338 19.7678 9.55447 19.6948 9.34043 19.5975C9.34043 19.7726 9.36962 19.9477 9.42799 20.1229C9.48637 20.298 9.58366 20.4634 9.71987 20.6191L12.0549 23.3627C12.1132 23.46 12.1619 23.5524 12.2008 23.64C12.2397 23.7275 12.2592 23.82 12.2592 23.9172V26.3398H10.5079Z" fill="#2563EB"/>
</svg>
